<mxfile host="app.diagrams.net" modified="2023-03-06T17:14:41.952Z" agent="5.0 (Windows NT 10.0; Win64; x64) AppleWebKit/537.36 (KHTML, like Gecko) Chrome/110.0.0.0 Safari/537.36" etag="GEbBo3SEwZsvJ6BrYkEy" version="20.6.2" type="github">
  <diagram id="R2lEEEUBdFMjLlhIrx00" name="Page-1">
    <mxGraphModel dx="1038" dy="583" grid="1" gridSize="10" guides="1" tooltips="1" connect="1" arrows="1" fold="1" page="1" pageScale="1" pageWidth="850" pageHeight="1100" math="0" shadow="0" extFonts="Permanent Marker^https://fonts.googleapis.com/css?family=Permanent+Marker">
      <root>
        <mxCell id="0" />
        <mxCell id="1" parent="0" />
        <mxCell id="AKInlU7RmeM9Gv5LZh1b-44" style="edgeStyle=orthogonalEdgeStyle;rounded=0;orthogonalLoop=1;jettySize=auto;html=1;exitX=1;exitY=0;exitDx=0;exitDy=0;entryX=0;entryY=0.5;entryDx=0;entryDy=0;endArrow=none;endFill=0;" edge="1" parent="1" source="AKInlU7RmeM9Gv5LZh1b-3" target="AKInlU7RmeM9Gv5LZh1b-43">
          <mxGeometry relative="1" as="geometry">
            <Array as="points">
              <mxPoint x="120" y="128" />
              <mxPoint x="209" y="128" />
              <mxPoint x="209" y="130" />
              <mxPoint x="360" y="130" />
            </Array>
          </mxGeometry>
        </mxCell>
        <mxCell id="AKInlU7RmeM9Gv5LZh1b-47" style="edgeStyle=orthogonalEdgeStyle;rounded=0;orthogonalLoop=1;jettySize=auto;html=1;exitX=0.75;exitY=0;exitDx=0;exitDy=0;entryX=0;entryY=0.5;entryDx=0;entryDy=0;endArrow=none;endFill=0;" edge="1" parent="1" source="AKInlU7RmeM9Gv5LZh1b-3" target="AKInlU7RmeM9Gv5LZh1b-46">
          <mxGeometry relative="1" as="geometry">
            <Array as="points">
              <mxPoint x="120" y="40" />
              <mxPoint x="120" y="200" />
              <mxPoint x="180" y="200" />
              <mxPoint x="180" y="440" />
            </Array>
          </mxGeometry>
        </mxCell>
        <mxCell id="AKInlU7RmeM9Gv5LZh1b-3" value="User" style="swimlane;fontStyle=0;childLayout=stackLayout;horizontal=1;startSize=30;horizontalStack=0;resizeParent=1;resizeParentMax=0;resizeLast=0;collapsible=1;marginBottom=0;whiteSpace=wrap;html=1;" vertex="1" parent="1">
          <mxGeometry x="40" y="40" width="80" height="180" as="geometry" />
        </mxCell>
        <mxCell id="AKInlU7RmeM9Gv5LZh1b-4" value="username" style="text;strokeColor=none;fillColor=none;align=left;verticalAlign=middle;spacingLeft=4;spacingRight=4;overflow=hidden;points=[[0,0.5],[1,0.5]];portConstraint=eastwest;rotatable=0;whiteSpace=wrap;html=1;" vertex="1" parent="AKInlU7RmeM9Gv5LZh1b-3">
          <mxGeometry y="30" width="80" height="30" as="geometry" />
        </mxCell>
        <mxCell id="AKInlU7RmeM9Gv5LZh1b-5" value="password" style="text;strokeColor=none;fillColor=none;align=left;verticalAlign=middle;spacingLeft=4;spacingRight=4;overflow=hidden;points=[[0,0.5],[1,0.5]];portConstraint=eastwest;rotatable=0;whiteSpace=wrap;html=1;" vertex="1" parent="AKInlU7RmeM9Gv5LZh1b-3">
          <mxGeometry y="60" width="80" height="30" as="geometry" />
        </mxCell>
        <mxCell id="AKInlU7RmeM9Gv5LZh1b-6" value="email" style="text;strokeColor=none;fillColor=none;align=left;verticalAlign=middle;spacingLeft=4;spacingRight=4;overflow=hidden;points=[[0,0.5],[1,0.5]];portConstraint=eastwest;rotatable=0;whiteSpace=wrap;html=1;" vertex="1" parent="AKInlU7RmeM9Gv5LZh1b-3">
          <mxGeometry y="90" width="80" height="30" as="geometry" />
        </mxCell>
        <mxCell id="AKInlU7RmeM9Gv5LZh1b-7" value="organization" style="text;strokeColor=none;fillColor=none;align=left;verticalAlign=middle;spacingLeft=4;spacingRight=4;overflow=hidden;points=[[0,0.5],[1,0.5]];portConstraint=eastwest;rotatable=0;whiteSpace=wrap;html=1;" vertex="1" parent="AKInlU7RmeM9Gv5LZh1b-3">
          <mxGeometry y="120" width="80" height="30" as="geometry" />
        </mxCell>
        <mxCell id="AKInlU7RmeM9Gv5LZh1b-8" value="qualification" style="text;strokeColor=none;fillColor=none;align=left;verticalAlign=middle;spacingLeft=4;spacingRight=4;overflow=hidden;points=[[0,0.5],[1,0.5]];portConstraint=eastwest;rotatable=0;whiteSpace=wrap;html=1;" vertex="1" parent="AKInlU7RmeM9Gv5LZh1b-3">
          <mxGeometry y="150" width="80" height="30" as="geometry" />
        </mxCell>
        <mxCell id="AKInlU7RmeM9Gv5LZh1b-10" value="Admin" style="swimlane;fontStyle=0;childLayout=stackLayout;horizontal=1;startSize=30;horizontalStack=0;resizeParent=1;resizeParentMax=0;resizeLast=0;collapsible=1;marginBottom=0;whiteSpace=wrap;html=1;" vertex="1" parent="1">
          <mxGeometry x="610" y="200" width="80" height="90" as="geometry" />
        </mxCell>
        <mxCell id="AKInlU7RmeM9Gv5LZh1b-11" value="id" style="text;strokeColor=none;fillColor=none;align=left;verticalAlign=middle;spacingLeft=4;spacingRight=4;overflow=hidden;points=[[0,0.5],[1,0.5]];portConstraint=eastwest;rotatable=0;whiteSpace=wrap;html=1;" vertex="1" parent="AKInlU7RmeM9Gv5LZh1b-10">
          <mxGeometry y="30" width="80" height="30" as="geometry" />
        </mxCell>
        <mxCell id="AKInlU7RmeM9Gv5LZh1b-12" value="password" style="text;strokeColor=none;fillColor=none;align=left;verticalAlign=middle;spacingLeft=4;spacingRight=4;overflow=hidden;points=[[0,0.5],[1,0.5]];portConstraint=eastwest;rotatable=0;whiteSpace=wrap;html=1;" vertex="1" parent="AKInlU7RmeM9Gv5LZh1b-10">
          <mxGeometry y="60" width="80" height="30" as="geometry" />
        </mxCell>
        <mxCell id="AKInlU7RmeM9Gv5LZh1b-14" value="Post" style="swimlane;fontStyle=0;childLayout=stackLayout;horizontal=1;startSize=30;horizontalStack=0;resizeParent=1;resizeParentMax=0;resizeLast=0;collapsible=1;marginBottom=0;whiteSpace=wrap;html=1;" vertex="1" parent="1">
          <mxGeometry x="610" y="320" width="80" height="210" as="geometry" />
        </mxCell>
        <mxCell id="AKInlU7RmeM9Gv5LZh1b-15" value="post_id" style="text;strokeColor=none;fillColor=none;align=left;verticalAlign=middle;spacingLeft=4;spacingRight=4;overflow=hidden;points=[[0,0.5],[1,0.5]];portConstraint=eastwest;rotatable=0;whiteSpace=wrap;html=1;" vertex="1" parent="AKInlU7RmeM9Gv5LZh1b-14">
          <mxGeometry y="30" width="80" height="30" as="geometry" />
        </mxCell>
        <mxCell id="AKInlU7RmeM9Gv5LZh1b-16" value="category" style="text;strokeColor=none;fillColor=none;align=left;verticalAlign=middle;spacingLeft=4;spacingRight=4;overflow=hidden;points=[[0,0.5],[1,0.5]];portConstraint=eastwest;rotatable=0;whiteSpace=wrap;html=1;" vertex="1" parent="AKInlU7RmeM9Gv5LZh1b-14">
          <mxGeometry y="60" width="80" height="30" as="geometry" />
        </mxCell>
        <mxCell id="AKInlU7RmeM9Gv5LZh1b-17" value="type" style="text;strokeColor=none;fillColor=none;align=left;verticalAlign=middle;spacingLeft=4;spacingRight=4;overflow=hidden;points=[[0,0.5],[1,0.5]];portConstraint=eastwest;rotatable=0;whiteSpace=wrap;html=1;" vertex="1" parent="AKInlU7RmeM9Gv5LZh1b-14">
          <mxGeometry y="90" width="80" height="30" as="geometry" />
        </mxCell>
        <mxCell id="AKInlU7RmeM9Gv5LZh1b-18" value="title" style="text;strokeColor=none;fillColor=none;align=left;verticalAlign=middle;spacingLeft=4;spacingRight=4;overflow=hidden;points=[[0,0.5],[1,0.5]];portConstraint=eastwest;rotatable=0;whiteSpace=wrap;html=1;" vertex="1" parent="AKInlU7RmeM9Gv5LZh1b-14">
          <mxGeometry y="120" width="80" height="30" as="geometry" />
        </mxCell>
        <mxCell id="AKInlU7RmeM9Gv5LZh1b-19" value="body&lt;span style=&quot;color: rgba(0, 0, 0, 0); font-family: monospace; font-size: 0px;&quot;&gt;%3CmxGraphModel%3E%3Croot%3E%3CmxCell%20id%3D%220%22%2F%3E%3CmxCell%20id%3D%221%22%20parent%3D%220%22%2F%3E%3CmxCell%20id%3D%222%22%20value%3D%22type%22%20style%3D%22text%3BstrokeColor%3Dnone%3BfillColor%3Dnone%3Balign%3Dleft%3BverticalAlign%3Dmiddle%3BspacingLeft%3D4%3BspacingRight%3D4%3Boverflow%3Dhidden%3Bpoints%3D%5B%5B0%2C0.5%5D%2C%5B1%2C0.5%5D%5D%3BportConstraint%3Deastwest%3Brotatable%3D0%3BwhiteSpace%3Dwrap%3Bhtml%3D1%3B%22%20vertex%3D%221%22%20parent%3D%221%22%3E%3CmxGeometry%20x%3D%22280%22%20y%3D%22450%22%20width%3D%22140%22%20height%3D%2230%22%20as%3D%22geometry%22%2F%3E%3C%2FmxCell%3E%3C%2Froot%3E%3C%2FmxGraphModel%3E&lt;/span&gt;" style="text;strokeColor=none;fillColor=none;align=left;verticalAlign=middle;spacingLeft=4;spacingRight=4;overflow=hidden;points=[[0,0.5],[1,0.5]];portConstraint=eastwest;rotatable=0;whiteSpace=wrap;html=1;" vertex="1" parent="AKInlU7RmeM9Gv5LZh1b-14">
          <mxGeometry y="150" width="80" height="30" as="geometry" />
        </mxCell>
        <mxCell id="AKInlU7RmeM9Gv5LZh1b-20" value="date" style="text;strokeColor=none;fillColor=none;align=left;verticalAlign=middle;spacingLeft=4;spacingRight=4;overflow=hidden;points=[[0,0.5],[1,0.5]];portConstraint=eastwest;rotatable=0;whiteSpace=wrap;html=1;" vertex="1" parent="AKInlU7RmeM9Gv5LZh1b-14">
          <mxGeometry y="180" width="80" height="30" as="geometry" />
        </mxCell>
        <mxCell id="AKInlU7RmeM9Gv5LZh1b-25" style="edgeStyle=orthogonalEdgeStyle;rounded=0;orthogonalLoop=1;jettySize=auto;html=1;exitX=1;exitY=0.5;exitDx=0;exitDy=0;entryX=0;entryY=0.5;entryDx=0;entryDy=0;endArrow=none;endFill=0;" edge="1" parent="1" source="AKInlU7RmeM9Gv5LZh1b-21" target="AKInlU7RmeM9Gv5LZh1b-11">
          <mxGeometry relative="1" as="geometry" />
        </mxCell>
        <mxCell id="AKInlU7RmeM9Gv5LZh1b-21" value="Assigns&lt;br&gt;Role" style="rhombus;whiteSpace=wrap;html=1;" vertex="1" parent="1">
          <mxGeometry x="450" y="205" width="80" height="80" as="geometry" />
        </mxCell>
        <mxCell id="AKInlU7RmeM9Gv5LZh1b-24" style="edgeStyle=orthogonalEdgeStyle;rounded=0;orthogonalLoop=1;jettySize=auto;html=1;exitX=1;exitY=0.5;exitDx=0;exitDy=0;entryX=0;entryY=0.5;entryDx=0;entryDy=0;endArrow=none;endFill=0;" edge="1" parent="1" source="AKInlU7RmeM9Gv5LZh1b-5" target="AKInlU7RmeM9Gv5LZh1b-21">
          <mxGeometry relative="1" as="geometry">
            <Array as="points">
              <mxPoint x="120" y="150" />
              <mxPoint x="330" y="150" />
              <mxPoint x="330" y="245" />
            </Array>
          </mxGeometry>
        </mxCell>
        <mxCell id="AKInlU7RmeM9Gv5LZh1b-27" style="edgeStyle=orthogonalEdgeStyle;rounded=0;orthogonalLoop=1;jettySize=auto;html=1;exitX=0;exitY=0.5;exitDx=0;exitDy=0;entryX=1;entryY=0.5;entryDx=0;entryDy=0;endArrow=none;endFill=0;" edge="1" parent="1" source="AKInlU7RmeM9Gv5LZh1b-26" target="AKInlU7RmeM9Gv5LZh1b-7">
          <mxGeometry relative="1" as="geometry">
            <Array as="points">
              <mxPoint x="450" y="300" />
              <mxPoint x="280" y="300" />
              <mxPoint x="280" y="160" />
              <mxPoint x="120" y="160" />
            </Array>
          </mxGeometry>
        </mxCell>
        <mxCell id="AKInlU7RmeM9Gv5LZh1b-28" style="edgeStyle=orthogonalEdgeStyle;rounded=0;orthogonalLoop=1;jettySize=auto;html=1;endArrow=none;endFill=0;" edge="1" parent="1" source="AKInlU7RmeM9Gv5LZh1b-26" target="AKInlU7RmeM9Gv5LZh1b-15">
          <mxGeometry relative="1" as="geometry" />
        </mxCell>
        <mxCell id="AKInlU7RmeM9Gv5LZh1b-26" value="Creates" style="rhombus;whiteSpace=wrap;html=1;" vertex="1" parent="1">
          <mxGeometry x="450" y="360" width="80" height="80" as="geometry" />
        </mxCell>
        <mxCell id="AKInlU7RmeM9Gv5LZh1b-31" style="edgeStyle=orthogonalEdgeStyle;rounded=0;orthogonalLoop=1;jettySize=auto;html=1;exitX=1;exitY=0.5;exitDx=0;exitDy=0;endArrow=none;endFill=0;" edge="1" parent="1" source="AKInlU7RmeM9Gv5LZh1b-29" target="AKInlU7RmeM9Gv5LZh1b-16">
          <mxGeometry relative="1" as="geometry">
            <Array as="points">
              <mxPoint x="580" y="485" />
              <mxPoint x="580" y="395" />
            </Array>
          </mxGeometry>
        </mxCell>
        <mxCell id="AKInlU7RmeM9Gv5LZh1b-29" value="Reacts" style="rhombus;whiteSpace=wrap;html=1;" vertex="1" parent="1">
          <mxGeometry x="450" y="445" width="80" height="80" as="geometry" />
        </mxCell>
        <mxCell id="AKInlU7RmeM9Gv5LZh1b-30" style="edgeStyle=orthogonalEdgeStyle;rounded=0;orthogonalLoop=1;jettySize=auto;html=1;exitX=1;exitY=0.5;exitDx=0;exitDy=0;entryX=0;entryY=0.5;entryDx=0;entryDy=0;endArrow=none;endFill=0;" edge="1" parent="1" source="AKInlU7RmeM9Gv5LZh1b-8" target="AKInlU7RmeM9Gv5LZh1b-29">
          <mxGeometry relative="1" as="geometry">
            <Array as="points">
              <mxPoint x="120" y="190" />
              <mxPoint x="240" y="190" />
              <mxPoint x="240" y="350" />
              <mxPoint x="440" y="350" />
            </Array>
          </mxGeometry>
        </mxCell>
        <mxCell id="AKInlU7RmeM9Gv5LZh1b-32" value="Follows" style="rhombus;whiteSpace=wrap;html=1;" vertex="1" parent="1">
          <mxGeometry x="40" y="320" width="80" height="80" as="geometry" />
        </mxCell>
        <mxCell id="AKInlU7RmeM9Gv5LZh1b-33" style="edgeStyle=orthogonalEdgeStyle;rounded=0;orthogonalLoop=1;jettySize=auto;html=1;exitX=0;exitY=0.5;exitDx=0;exitDy=0;entryX=0;entryY=0.5;entryDx=0;entryDy=0;endArrow=none;endFill=0;" edge="1" parent="1" source="AKInlU7RmeM9Gv5LZh1b-8" target="AKInlU7RmeM9Gv5LZh1b-32">
          <mxGeometry relative="1" as="geometry">
            <Array as="points">
              <mxPoint x="40" y="210" />
              <mxPoint x="20" y="210" />
              <mxPoint x="20" y="360" />
            </Array>
          </mxGeometry>
        </mxCell>
        <mxCell id="AKInlU7RmeM9Gv5LZh1b-34" style="edgeStyle=orthogonalEdgeStyle;rounded=0;orthogonalLoop=1;jettySize=auto;html=1;exitX=1;exitY=0.5;exitDx=0;exitDy=0;entryX=1;entryY=0.5;entryDx=0;entryDy=0;endArrow=none;endFill=0;" edge="1" parent="1" source="AKInlU7RmeM9Gv5LZh1b-6" target="AKInlU7RmeM9Gv5LZh1b-32">
          <mxGeometry relative="1" as="geometry">
            <Array as="points">
              <mxPoint x="120" y="210" />
              <mxPoint x="140" y="210" />
              <mxPoint x="140" y="360" />
            </Array>
          </mxGeometry>
        </mxCell>
        <mxCell id="AKInlU7RmeM9Gv5LZh1b-35" value="Project" style="swimlane;fontStyle=0;childLayout=stackLayout;horizontal=1;startSize=30;horizontalStack=0;resizeParent=1;resizeParentMax=0;resizeLast=0;collapsible=1;marginBottom=0;whiteSpace=wrap;html=1;" vertex="1" parent="1">
          <mxGeometry x="600" y="40" width="80" height="150" as="geometry" />
        </mxCell>
        <mxCell id="AKInlU7RmeM9Gv5LZh1b-36" value="project_id" style="text;strokeColor=none;fillColor=none;align=left;verticalAlign=middle;spacingLeft=4;spacingRight=4;overflow=hidden;points=[[0,0.5],[1,0.5]];portConstraint=eastwest;rotatable=0;whiteSpace=wrap;html=1;" vertex="1" parent="AKInlU7RmeM9Gv5LZh1b-35">
          <mxGeometry y="30" width="80" height="30" as="geometry" />
        </mxCell>
        <mxCell id="AKInlU7RmeM9Gv5LZh1b-37" value="project_title" style="text;strokeColor=none;fillColor=none;align=left;verticalAlign=middle;spacingLeft=4;spacingRight=4;overflow=hidden;points=[[0,0.5],[1,0.5]];portConstraint=eastwest;rotatable=0;whiteSpace=wrap;html=1;" vertex="1" parent="AKInlU7RmeM9Gv5LZh1b-35">
          <mxGeometry y="60" width="80" height="30" as="geometry" />
        </mxCell>
        <mxCell id="AKInlU7RmeM9Gv5LZh1b-38" value="description" style="text;strokeColor=none;fillColor=none;align=left;verticalAlign=middle;spacingLeft=4;spacingRight=4;overflow=hidden;points=[[0,0.5],[1,0.5]];portConstraint=eastwest;rotatable=0;whiteSpace=wrap;html=1;" vertex="1" parent="AKInlU7RmeM9Gv5LZh1b-35">
          <mxGeometry y="90" width="80" height="30" as="geometry" />
        </mxCell>
        <mxCell id="AKInlU7RmeM9Gv5LZh1b-39" value="duration" style="text;strokeColor=none;fillColor=none;align=left;verticalAlign=middle;spacingLeft=4;spacingRight=4;overflow=hidden;points=[[0,0.5],[1,0.5]];portConstraint=eastwest;rotatable=0;whiteSpace=wrap;html=1;" vertex="1" parent="AKInlU7RmeM9Gv5LZh1b-35">
          <mxGeometry y="120" width="80" height="30" as="geometry" />
        </mxCell>
        <mxCell id="AKInlU7RmeM9Gv5LZh1b-41" style="edgeStyle=orthogonalEdgeStyle;rounded=0;orthogonalLoop=1;jettySize=auto;html=1;exitX=1;exitY=0.5;exitDx=0;exitDy=0;endArrow=none;endFill=0;" edge="1" parent="1" source="AKInlU7RmeM9Gv5LZh1b-40" target="AKInlU7RmeM9Gv5LZh1b-36">
          <mxGeometry relative="1" as="geometry" />
        </mxCell>
        <mxCell id="AKInlU7RmeM9Gv5LZh1b-40" value="Creates" style="rhombus;whiteSpace=wrap;html=1;" vertex="1" parent="1">
          <mxGeometry x="362.5" y="50" width="60" height="60" as="geometry" />
        </mxCell>
        <mxCell id="AKInlU7RmeM9Gv5LZh1b-42" style="edgeStyle=orthogonalEdgeStyle;rounded=0;orthogonalLoop=1;jettySize=auto;html=1;exitX=1;exitY=0.5;exitDx=0;exitDy=0;endArrow=none;endFill=0;" edge="1" parent="1" source="AKInlU7RmeM9Gv5LZh1b-4" target="AKInlU7RmeM9Gv5LZh1b-40">
          <mxGeometry relative="1" as="geometry" />
        </mxCell>
        <mxCell id="AKInlU7RmeM9Gv5LZh1b-45" style="edgeStyle=orthogonalEdgeStyle;rounded=0;orthogonalLoop=1;jettySize=auto;html=1;exitX=1;exitY=0.5;exitDx=0;exitDy=0;endArrow=none;endFill=0;" edge="1" parent="1" source="AKInlU7RmeM9Gv5LZh1b-43" target="AKInlU7RmeM9Gv5LZh1b-38">
          <mxGeometry relative="1" as="geometry" />
        </mxCell>
        <mxCell id="AKInlU7RmeM9Gv5LZh1b-43" value="Collaborate" style="rhombus;whiteSpace=wrap;html=1;" vertex="1" parent="1">
          <mxGeometry x="360" y="110" width="65" height="55" as="geometry" />
        </mxCell>
        <mxCell id="AKInlU7RmeM9Gv5LZh1b-48" style="edgeStyle=orthogonalEdgeStyle;rounded=0;orthogonalLoop=1;jettySize=auto;html=1;exitX=1;exitY=0.5;exitDx=0;exitDy=0;entryX=0.43;entryY=1.033;entryDx=0;entryDy=0;entryPerimeter=0;endArrow=none;endFill=0;" edge="1" parent="1" source="AKInlU7RmeM9Gv5LZh1b-46" target="AKInlU7RmeM9Gv5LZh1b-20">
          <mxGeometry relative="1" as="geometry">
            <Array as="points">
              <mxPoint x="400" y="440" />
              <mxPoint x="400" y="550" />
              <mxPoint x="644" y="550" />
            </Array>
          </mxGeometry>
        </mxCell>
        <mxCell id="AKInlU7RmeM9Gv5LZh1b-46" value="Messages" style="rhombus;whiteSpace=wrap;html=1;" vertex="1" parent="1">
          <mxGeometry x="200" y="400" width="80" height="80" as="geometry" />
        </mxCell>
      </root>
    </mxGraphModel>
  </diagram>
</mxfile>
